<?xml version="1.0"?>
<svg xmlns="http://www.w3.org/2000/svg" xmlns:xlink="http://www.w3.org/1999/xlink" xmlns:svgjs="http://svgjs.com/svgjs" version="1.1" width="512" height="512" x="0" y="0" viewBox="0 0 512 512" style="enable-background:new 0 0 512 512" xml:space="preserve" class=""><g><g xmlns="http://www.w3.org/2000/svg"><path d="m485.531 305.661c14.595 0 26.469-11.874 26.469-26.469v-161.095c0-8.599-3.553-16.95-9.748-22.915l-94.516-90.988c-2.795-2.691-6.523-4.194-10.403-4.194h-46.517c-15.006 0-27.216 12.209-27.216 27.217v10.444h-11.353c-8.284 0-15 6.716-15 15s6.716 15 15 15h11.353v44.652h-54.777l-13.94-88.538c-1.728-13.582-13.266-23.775-26.998-23.775h-38.868c-15.008 0-27.217 12.209-27.217 27.217v10.444h-11.466c-8.284 0-15 6.716-15 15s6.716 15 15 15h11.466v44.652h-54.776l-13.94-88.54c-1.73-13.581-13.268-23.773-26.999-23.773h-38.868c-15.008 0-27.217 12.209-27.217 27.217v251.975c0 14.595 11.874 26.469 26.469 26.469h32.076c2.258 11.078 6.967 21.275 13.532 30h-57.077c-8.284 0-15 6.716-15 15v146.339c0 8.284 6.716 15 15 15s15-6.716 15-15v-69.333h90.5v69.333c0 8.284 6.716 15 15 15s15-6.716 15-15v-69.333h90.5v69.333c0 8.284 6.716 15 15 15s15-6.716 15-15v-69.333h90.5v69.333c0 8.284 6.716 15 15 15s15-6.716 15-15v-69.333h90.5v69.333c0 8.284 6.716 15 15 15s15-6.716 15-15c0-4.09 0-137.285 0-146.339 0-8.284-6.716-15-15-15h-57.077c6.565-8.725 11.274-18.922 13.532-30zm-421.837-275.661 15.689 99.646c1.148 7.293 7.434 12.667 14.817 12.667h82.6c8.284 0 15-6.716 15-15v-97.313h33.694l15.689 99.646c1.148 7.293 7.434 12.667 14.817 12.667h82.6c8.284 0 15-6.716 15-15 0-8.392 0-89.29 0-97.313h37.687l90.159 86.794c.352.339.554.814.554 1.303v84.842h-452v-172.939zm-33.694 202.939h452v42.722c-3.955 0-436.467 0-452 0zm276.473 72.722c2.258 11.078 6.967 21.275 13.532 30h-128.01c6.565-8.725 11.274-18.922 13.532-30zm-216.867 0h84.859c-6.191 17.461-22.874 30-42.43 30s-36.238-12.539-42.429-30zm392.394 92.006h-452v-32.006h452zm-102.036-62.006c-19.556 0-36.239-12.539-42.43-30h84.859c-6.19 17.461-22.873 30-42.429 30z" fill="#c45891" data-original="#000000" style="" class=""/></g></g></svg>
